<svg width="87" height="87" viewBox="0 0 87 87" fill="none" xmlns="http://www.w3.org/2000/svg">
<path d="M43.14 0.5C40.1202 0.5 37.7475 2.8727 37.7475 5.8925C37.7475 8.9123 40.1202 11.285 43.14 11.285C46.1598 11.285 48.5325 8.9123 48.5325 5.8925C48.5325 2.8727 46.1598 0.5 43.14 0.5ZM16.1775 11.285C13.1577 11.285 10.785 13.6577 10.785 16.6775C10.785 19.6973 13.1577 22.07 16.1775 22.07C19.1973 22.07 21.57 19.6973 21.57 16.6775C21.57 13.6577 19.1973 11.285 16.1775 11.285ZM70.1025 11.285C67.0827 11.285 64.71 13.6577 64.71 16.6775C64.71 19.6973 67.0827 22.07 70.1025 22.07C73.1223 22.07 75.495 19.6973 75.495 16.6775C75.495 13.6577 73.1223 11.285 70.1025 11.285ZM43.14 22.07C31.2765 22.07 21.57 31.7765 21.57 43.64C21.57 55.5035 31.2765 65.21 43.14 65.21C55.0035 65.21 64.71 55.5035 64.71 43.64C64.71 31.7765 55.0035 22.07 43.14 22.07ZM5.3925 38.2475C2.3727 38.2475 0 40.6202 0 43.64C0 46.6598 2.3727 49.0325 5.3925 49.0325C8.4123 49.0325 10.785 46.6598 10.785 43.64C10.785 40.6202 8.4123 38.2475 5.3925 38.2475ZM80.8875 38.2475C77.8677 38.2475 75.495 40.6202 75.495 43.64C75.495 46.6598 77.8677 49.0325 80.8875 49.0325C83.9073 49.0325 86.28 46.6598 86.28 43.64C86.28 40.6202 83.9073 38.2475 80.8875 38.2475ZM16.1775 65.21C13.1577 65.21 10.785 67.5827 10.785 70.6025C10.785 73.6223 13.1577 75.995 16.1775 75.995C19.1973 75.995 21.57 73.6223 21.57 70.6025C21.57 67.5827 19.1973 65.21 16.1775 65.21ZM70.1025 65.21C67.0827 65.21 64.71 67.5827 64.71 70.6025C64.71 73.6223 67.0827 75.995 70.1025 75.995C73.1223 75.995 75.495 73.6223 75.495 70.6025C75.495 67.5827 73.1223 65.21 70.1025 65.21ZM43.14 75.995C40.1202 75.995 37.7475 78.3677 37.7475 81.3875C37.7475 84.4073 40.1202 86.78 43.14 86.78C46.1598 86.78 48.5325 84.4073 48.5325 81.3875C48.5325 78.3677 46.1598 75.995 43.14 75.995Z" fill="black"/>
</svg>
